solid STL generated by MeshLab
  facet normal  0.000000e+00 -1.000000e+00  0.000000e+00
    outer loop
      vertex  -1.025000e-01 -8.150000e-02  0.000000e+00
      vertex   1.025000e-01 -8.150000e-02  0.000000e+00
      vertex  -1.025000e-01 -8.150000e-02  5.600000e-03
    endloop
  endfacet
  facet normal  0.000000e+00 -1.000000e+00  0.000000e+00
    outer loop
      vertex  -1.025000e-01 -8.150000e-02  5.600000e-03
      vertex   1.025000e-01 -8.150000e-02  0.000000e+00
      vertex   1.025000e-01 -8.150000e-02  5.600000e-03
    endloop
  endfacet
  facet normal -1.000000e+00  0.000000e+00  0.000000e+00
    outer loop
      vertex  -1.025000e-01  8.150000e-02  0.000000e+00
      vertex  -1.025000e-01 -8.150000e-02  0.000000e+00
      vertex  -1.025000e-01  8.150000e-02  5.600000e-03
    endloop
  endfacet
  facet normal -1.000000e+00 -0.000000e+00  0.000000e+00
    outer loop
      vertex  -1.025000e-01  8.150000e-02  5.600000e-03
      vertex  -1.025000e-01 -8.150000e-02  0.000000e+00
      vertex  -1.025000e-01 -8.150000e-02  5.600000e-03
    endloop
  endfacet
  facet normal  0.000000e+00  1.000000e+00 -0.000000e+00
    outer loop
      vertex   1.025000e-01  8.150000e-02  0.000000e+00
      vertex  -1.025000e-01  8.150000e-02  0.000000e+00
      vertex   1.025000e-01  8.150000e-02  5.600000e-03
    endloop
  endfacet
  facet normal  0.000000e+00  1.000000e+00  0.000000e+00
    outer loop
      vertex   1.025000e-01  8.150000e-02  5.600000e-03
      vertex  -1.025000e-01  8.150000e-02  0.000000e+00
      vertex  -1.025000e-01  8.150000e-02  5.600000e-03
    endloop
  endfacet
  facet normal  1.000000e+00  0.000000e+00  0.000000e+00
    outer loop
      vertex   1.025000e-01 -8.150000e-02  0.000000e+00
      vertex   1.025000e-01  8.150000e-02  0.000000e+00
      vertex   1.025000e-01 -8.150000e-02  5.600000e-03
    endloop
  endfacet
  facet normal  1.000000e+00 -0.000000e+00  0.000000e+00
    outer loop
      vertex   1.025000e-01 -8.150000e-02  5.600000e-03
      vertex   1.025000e-01  8.150000e-02  0.000000e+00
      vertex   1.025000e-01  8.150000e-02  5.600000e-03
    endloop
  endfacet
  facet normal  0.000000e+00  0.000000e+00  1.000000e+00
    outer loop
      vertex   1.025000e-01  8.150000e-02  5.600000e-03
      vertex  -1.025000e-01  8.150000e-02  5.600000e-03
      vertex   1.025000e-01 -8.150000e-02  5.600000e-03
    endloop
  endfacet
  facet normal  0.000000e+00  0.000000e+00  1.000000e+00
    outer loop
      vertex   1.025000e-01 -8.150000e-02  5.600000e-03
      vertex  -1.025000e-01  8.150000e-02  5.600000e-03
      vertex  -1.025000e-01 -8.150000e-02  5.600000e-03
    endloop
  endfacet
  facet normal  0.000000e+00  0.000000e+00 -1.000000e+00
    outer loop
      vertex   1.025000e-01 -8.150000e-02  0.000000e+00
      vertex  -1.025000e-01 -8.150000e-02  0.000000e+00
      vertex   1.025000e-01  8.150000e-02  0.000000e+00
    endloop
  endfacet
  facet normal -0.000000e+00  0.000000e+00 -1.000000e+00
    outer loop
      vertex   1.025000e-01  8.150000e-02  0.000000e+00
      vertex  -1.025000e-01 -8.150000e-02  0.000000e+00
      vertex  -1.025000e-01  8.150000e-02  0.000000e+00
    endloop
  endfacet
endsolid vcg
