solid STL generated by MeshLab
  facet normal  0.000000e+00  1.000000e+00 -0.000000e+00
    outer loop
      vertex   1.330000e-01 -1.830000e-01  4.000000e-03
      vertex  -1.330000e-01 -1.830000e-01  4.000000e-03
      vertex   1.330000e-01 -1.830000e-01  1.170000e-01
    endloop
  endfacet
  facet normal  0.000000e+00  1.000000e+00  0.000000e+00
    outer loop
      vertex   1.330000e-01 -1.830000e-01  1.170000e-01
      vertex  -1.330000e-01 -1.830000e-01  4.000000e-03
      vertex  -1.330000e-01 -1.830000e-01  1.170000e-01
    endloop
  endfacet
  facet normal -1.000000e+00  0.000000e+00  0.000000e+00
    outer loop
      vertex   1.330000e-01  1.830000e-01  4.000000e-03
      vertex   1.330000e-01 -1.830000e-01  4.000000e-03
      vertex   1.330000e-01  1.830000e-01  1.170000e-01
    endloop
  endfacet
  facet normal -1.000000e+00 -0.000000e+00  0.000000e+00
    outer loop
      vertex   1.330000e-01  1.830000e-01  1.170000e-01
      vertex   1.330000e-01 -1.830000e-01  4.000000e-03
      vertex   1.330000e-01 -1.830000e-01  1.170000e-01
    endloop
  endfacet
  facet normal  0.000000e+00 -1.000000e+00  0.000000e+00
    outer loop
      vertex  -1.330000e-01  1.830000e-01  4.000000e-03
      vertex   1.330000e-01  1.830000e-01  4.000000e-03
      vertex  -1.330000e-01  1.830000e-01  1.170000e-01
    endloop
  endfacet
  facet normal  0.000000e+00 -1.000000e+00  0.000000e+00
    outer loop
      vertex  -1.330000e-01  1.830000e-01  1.170000e-01
      vertex   1.330000e-01  1.830000e-01  4.000000e-03
      vertex   1.330000e-01  1.830000e-01  1.170000e-01
    endloop
  endfacet
  facet normal  1.000000e+00  0.000000e+00  0.000000e+00
    outer loop
      vertex  -1.330000e-01 -1.830000e-01  4.000000e-03
      vertex  -1.330000e-01  1.830000e-01  4.000000e-03
      vertex  -1.330000e-01 -1.830000e-01  1.170000e-01
    endloop
  endfacet
  facet normal  1.000000e+00 -0.000000e+00  0.000000e+00
    outer loop
      vertex  -1.330000e-01 -1.830000e-01  1.170000e-01
      vertex  -1.330000e-01  1.830000e-01  4.000000e-03
      vertex  -1.330000e-01  1.830000e-01  1.170000e-01
    endloop
  endfacet
  facet normal  0.000000e+00  0.000000e+00  1.000000e+00
    outer loop
      vertex   1.500000e-01  2.000000e-01  1.170000e-01
      vertex   1.330000e-01  1.830000e-01  1.170000e-01
      vertex   1.500000e-01 -2.000000e-01  1.170000e-01
    endloop
  endfacet
  facet normal  0.000000e+00  0.000000e+00  1.000000e+00
    outer loop
      vertex   1.500000e-01 -2.000000e-01  1.170000e-01
      vertex   1.330000e-01  1.830000e-01  1.170000e-01
      vertex   1.330000e-01 -1.830000e-01  1.170000e-01
    endloop
  endfacet
  facet normal  0.000000e+00  0.000000e+00  1.000000e+00
    outer loop
      vertex   1.500000e-01 -2.000000e-01  1.170000e-01
      vertex   1.330000e-01 -1.830000e-01  1.170000e-01
      vertex  -1.330000e-01 -1.830000e-01  1.170000e-01
    endloop
  endfacet
  facet normal  0.000000e+00  0.000000e+00  1.000000e+00
    outer loop
      vertex   1.500000e-01  2.000000e-01  1.170000e-01
      vertex  -1.500000e-01  2.000000e-01  1.170000e-01
      vertex   1.330000e-01  1.830000e-01  1.170000e-01
    endloop
  endfacet
  facet normal  0.000000e+00  0.000000e+00  1.000000e+00
    outer loop
      vertex   1.330000e-01  1.830000e-01  1.170000e-01
      vertex  -1.500000e-01  2.000000e-01  1.170000e-01
      vertex  -1.330000e-01  1.830000e-01  1.170000e-01
    endloop
  endfacet
  facet normal  0.000000e+00  0.000000e+00  1.000000e+00
    outer loop
      vertex  -1.330000e-01  1.830000e-01  1.170000e-01
      vertex  -1.500000e-01  2.000000e-01  1.170000e-01
      vertex  -1.500000e-01 -2.000000e-01  1.170000e-01
    endloop
  endfacet
  facet normal  0.000000e+00  0.000000e+00  1.000000e+00
    outer loop
      vertex  -1.330000e-01  1.830000e-01  1.170000e-01
      vertex  -1.500000e-01 -2.000000e-01  1.170000e-01
      vertex  -1.330000e-01 -1.830000e-01  1.170000e-01
    endloop
  endfacet
  facet normal  0.000000e+00  0.000000e+00  1.000000e+00
    outer loop
      vertex  -1.330000e-01 -1.830000e-01  1.170000e-01
      vertex  -1.500000e-01 -2.000000e-01  1.170000e-01
      vertex   1.500000e-01 -2.000000e-01  1.170000e-01
    endloop
  endfacet
  facet normal  0.000000e+00 -1.000000e+00  0.000000e+00
    outer loop
      vertex  -1.500000e-01 -2.000000e-01  0.000000e+00
      vertex   1.500000e-01 -2.000000e-01  0.000000e+00
      vertex  -1.500000e-01 -2.000000e-01  1.170000e-01
    endloop
  endfacet
  facet normal  0.000000e+00 -1.000000e+00  0.000000e+00
    outer loop
      vertex  -1.500000e-01 -2.000000e-01  1.170000e-01
      vertex   1.500000e-01 -2.000000e-01  0.000000e+00
      vertex   1.500000e-01 -2.000000e-01  1.170000e-01
    endloop
  endfacet
  facet normal -1.000000e+00  0.000000e+00  0.000000e+00
    outer loop
      vertex  -1.500000e-01  2.000000e-01  0.000000e+00
      vertex  -1.500000e-01 -2.000000e-01  0.000000e+00
      vertex  -1.500000e-01  2.000000e-01  1.170000e-01
    endloop
  endfacet
  facet normal -1.000000e+00 -0.000000e+00  0.000000e+00
    outer loop
      vertex  -1.500000e-01  2.000000e-01  1.170000e-01
      vertex  -1.500000e-01 -2.000000e-01  0.000000e+00
      vertex  -1.500000e-01 -2.000000e-01  1.170000e-01
    endloop
  endfacet
  facet normal  0.000000e+00  1.000000e+00 -0.000000e+00
    outer loop
      vertex   1.500000e-01  2.000000e-01  0.000000e+00
      vertex  -1.500000e-01  2.000000e-01  0.000000e+00
      vertex   1.500000e-01  2.000000e-01  1.170000e-01
    endloop
  endfacet
  facet normal  0.000000e+00  1.000000e+00  0.000000e+00
    outer loop
      vertex   1.500000e-01  2.000000e-01  1.170000e-01
      vertex  -1.500000e-01  2.000000e-01  0.000000e+00
      vertex  -1.500000e-01  2.000000e-01  1.170000e-01
    endloop
  endfacet
  facet normal  1.000000e+00  0.000000e+00  0.000000e+00
    outer loop
      vertex   1.500000e-01 -2.000000e-01  0.000000e+00
      vertex   1.500000e-01  2.000000e-01  0.000000e+00
      vertex   1.500000e-01 -2.000000e-01  1.170000e-01
    endloop
  endfacet
  facet normal  1.000000e+00 -0.000000e+00  0.000000e+00
    outer loop
      vertex   1.500000e-01 -2.000000e-01  1.170000e-01
      vertex   1.500000e-01  2.000000e-01  0.000000e+00
      vertex   1.500000e-01  2.000000e-01  1.170000e-01
    endloop
  endfacet
  facet normal  0.000000e+00  0.000000e+00  1.000000e+00
    outer loop
      vertex  -1.330000e-01 -1.830000e-01  4.000000e-03
      vertex   1.330000e-01 -1.830000e-01  4.000000e-03
      vertex  -1.330000e-01  1.830000e-01  4.000000e-03
    endloop
  endfacet
  facet normal -0.000000e+00  0.000000e+00  1.000000e+00
    outer loop
      vertex  -1.330000e-01  1.830000e-01  4.000000e-03
      vertex   1.330000e-01 -1.830000e-01  4.000000e-03
      vertex   1.330000e-01  1.830000e-01  4.000000e-03
    endloop
  endfacet
  facet normal  0.000000e+00  0.000000e+00 -1.000000e+00
    outer loop
      vertex   1.500000e-01 -2.000000e-01  0.000000e+00
      vertex  -1.500000e-01 -2.000000e-01  0.000000e+00
      vertex   1.500000e-01  2.000000e-01  0.000000e+00
    endloop
  endfacet
  facet normal -0.000000e+00  0.000000e+00 -1.000000e+00
    outer loop
      vertex   1.500000e-01  2.000000e-01  0.000000e+00
      vertex  -1.500000e-01 -2.000000e-01  0.000000e+00
      vertex  -1.500000e-01  2.000000e-01  0.000000e+00
    endloop
  endfacet
endsolid vcg
